<svg width="375" height="375" viewBox="0 0 375 375" fill="none" xmlns="http://www.w3.org/2000/svg">
<path d="M201.333 165.053C197.496 169.025 197.606 175.356 201.578 179.193C205.551 183.03 211.882 182.92 215.718 178.947L201.333 165.053ZM303.524 83.8266C303.429 78.3046 298.875 73.9057 293.352 74.0015L203.366 75.562C197.844 75.6577 193.445 80.2118 193.541 85.7338C193.637 91.2559 198.191 95.6547 203.713 95.559L283.701 94.1719L285.088 174.16C285.184 179.682 289.738 184.081 295.26 183.985C300.782 183.889 305.181 179.335 305.085 173.813L303.524 83.8266ZM215.718 178.947L300.718 90.9474L286.333 77.0526L201.333 165.053L215.718 178.947Z" fill="black"/>
<path d="M167.922 202.373C171.805 198.446 178.137 198.411 182.063 202.295C185.99 206.178 186.025 212.51 182.142 216.437L167.922 202.373ZM89.0554 306.396C83.5327 306.427 79.0308 301.975 79.0001 296.452L78.5009 206.453C78.4702 200.931 82.9225 196.429 88.4452 196.398C93.968 196.368 98.4699 200.82 98.5006 206.343L98.9443 286.341L178.943 285.898C184.466 285.867 188.968 290.319 188.998 295.842C189.029 301.365 184.577 305.867 179.054 305.897L89.0554 306.396ZM182.142 216.437L96.1101 303.428L81.8898 289.365L167.922 202.373L182.142 216.437Z" fill="black"/>
<rect x="13" y="13" width="349" height="349" rx="105" stroke="black" stroke-width="25"/>
</svg>
