<svg width="18" height="18" viewBox="0 0 18 18" fill="none" xmlns="http://www.w3.org/2000/svg">
<path d="M1.5 9C1.5 5.46447 1.5 3.6967 2.59835 2.59835C3.6967 1.5 5.46447 1.5 9 1.5C12.5355 1.5 14.3033 1.5 15.4017 2.59835C16.5 3.6967 16.5 5.46447 16.5 9C16.5 12.5355 16.5 14.3033 15.4017 15.4017C14.3033 16.5 12.5355 16.5 9 16.5C5.46447 16.5 3.6967 16.5 2.59835 15.4017C1.5 14.3033 1.5 12.5355 1.5 9Z" stroke="#434343"/>
<path d="M3 11.25H4.7261C5.33238 11.25 5.63552 11.25 5.90757 11.3608C5.93234 11.3709 5.95684 11.3816 5.98104 11.393C6.24678 11.5182 6.45202 11.7413 6.8625 12.1875L6.88909 12.2164C7.27319 12.6339 7.46525 12.8427 7.71068 12.9658C7.75665 12.9888 7.80378 13.0095 7.85188 13.0277C8.10865 13.125 8.39231 13.125 8.95962 13.125C9.49597 13.125 9.76415 13.125 10.0094 13.0372C10.0554 13.0207 10.1005 13.002 10.1447 12.9811C10.3802 12.8698 10.5698 12.6802 10.949 12.301L11.1213 12.1287C11.5549 11.6951 11.7716 11.4784 12.0473 11.3642C12.323 11.25 12.6295 11.25 13.2426 11.25H15" stroke="#434343"/>
<path d="M3.75 11.25V10.125C3.75 9.50368 4.25368 9 4.875 9H13.125C13.7463 9 14.25 9.50368 14.25 10.125V11.25" stroke="#434343"/>
<path d="M3.75 10.5V7.875C3.75 7.25368 4.25368 6.75 4.875 6.75H13.125C13.7463 6.75 14.25 7.25368 14.25 7.875V10.5" stroke="#434343"/>
<path d="M3.75 8.25V5.625C3.75 5.00368 4.25368 4.5 4.875 4.5H13.125C13.7463 4.5 14.25 5.00368 14.25 5.625V8.25" stroke="#434343"/>
</svg>
