<svg width="24" height="24" viewBox="0 0 24 24" fill="none" xmlns="http://www.w3.org/2000/svg">
<path d="M17.4142 10.4142L17.7678 10.7678L17.4142 10.4142ZM14 11V11.5V11ZM14 3V3.5V3ZM17.4142 3.58579L17.7678 3.23223V3.23223L17.4142 3.58579ZM6.58579 3.58579L6.23223 3.23223H6.23223L6.58579 3.58579ZM10 3V2.5V3ZM6.58579 10.4142L6.23223 10.7678L6.58579 10.4142ZM10 11V10.5V11ZM10 3.5L14 3.5V2.5L10 2.5V3.5ZM14 10.5H10V11.5H14V10.5ZM17.5 7C17.5 7.95694 17.4989 8.62435 17.4312 9.12792C17.3655 9.6171 17.2452 9.87615 17.0607 10.0607L17.7678 10.7678C18.169 10.3665 18.3416 9.86124 18.4223 9.26117C18.5011 8.67548 18.5 7.92867 18.5 7H17.5ZM14 11.5C14.9287 11.5 15.6755 11.5011 16.2612 11.4223C16.8612 11.3416 17.3665 11.169 17.7678 10.7678L17.0607 10.0607C16.8762 10.2452 16.6171 10.3655 16.1279 10.4312C15.6244 10.4989 14.9569 10.5 14 10.5V11.5ZM17.0607 10.0607C17.0607 10.0607 17.0607 10.0607 17.0607 10.0607C17.0607 10.0607 17.0607 10.0607 17.0607 10.0607C17.0607 10.0606 17.0606 10.0607 17.0606 10.0607C17.0607 10.0606 17.0607 10.0606 17.0607 10.0607C17.7675 10.0604 17.768 10.7675 17.7678 10.7678C17.7677 10.7678 17.7677 10.7678 17.7678 10.7678C17.7677 10.7678 17.7678 10.7678 17.7677 10.7678C17.7678 10.7678 17.7678 10.7678 17.7678 10.7678C17.7678 10.7678 17.7678 10.7678 17.7678 10.7678C17.7678 10.7678 17.7678 10.7678 17.7678 10.7678C17.7678 10.7678 17.7678 10.7678 17.7678 10.7678C17.7678 10.7678 17.7677 10.7678 17.7677 10.7678C17.7677 10.7678 17.7677 10.7678 17.7678 10.7678C17.768 10.7675 17.7675 10.0604 17.0607 10.0607C17.0607 10.0606 17.0607 10.0606 17.0607 10.0606C17.0606 10.0607 17.0607 10.0606 17.0607 10.0607C17.0607 10.0607 17.0607 10.0607 17.0607 10.0607C17.0607 10.0607 17.0607 10.0607 17.0607 10.0607L17.7678 10.7678C17.7678 10.7678 17.7678 10.7678 17.7678 10.7678C17.7678 10.7678 17.7678 10.7678 17.7678 10.7678C17.7677 10.7678 17.7678 10.7678 17.7678 10.7677C17.7677 10.7679 17.7678 10.7678 17.7678 10.7678C17.0609 10.768 17.0604 10.0609 17.0607 10.0607C17.0607 10.0606 17.0607 10.0606 17.0607 10.0607C17.0607 10.0606 17.0606 10.0607 17.0607 10.0606C17.0607 10.0607 17.0607 10.0607 17.0607 10.0607C17.0607 10.0607 17.0607 10.0607 17.0607 10.0607C17.0607 10.0607 17.0607 10.0607 17.0607 10.0607C17.0607 10.0607 17.0607 10.0607 17.0607 10.0607C17.0607 10.0607 17.0607 10.0607 17.0607 10.0607L17.0607 10.0607C17.0607 10.0607 17.0607 10.0607 17.0607 10.0607C17.0607 10.0607 17.0607 10.0607 17.0607 10.0607C17.0607 10.0607 17.0607 10.0607 17.0607 10.0607C17.0607 10.0607 17.0607 10.0607 17.0607 10.0607C17.0607 10.0607 17.0607 10.0607 17.0607 10.0607C17.0606 10.0607 17.0607 10.0606 17.0607 10.0606C17.0607 10.0606 17.0607 10.0606 17.0607 10.0607C17.0604 10.0609 17.0609 10.768 17.7678 10.7678C17.7678 10.7678 17.7677 10.7679 17.7677 10.7678C17.7678 10.7678 17.7677 10.7678 17.7678 10.7678C17.7678 10.7678 17.7678 10.7678 17.7678 10.7678C17.7678 10.7678 17.7678 10.7678 17.7678 10.7678C17.7678 10.7678 17.7678 10.7678 17.7678 10.7678L17.0607 10.0607ZM14 3.5C14.9569 3.5 15.6244 3.50106 16.1279 3.56876C16.6171 3.63453 16.8762 3.75483 17.0607 3.93934L17.7678 3.23223C17.3665 2.83096 16.8612 2.65836 16.2612 2.57768C15.6755 2.49894 14.9287 2.5 14 2.5V3.5ZM18.5 7C18.5 6.07133 18.5011 5.32452 18.4223 4.73883C18.3416 4.13876 18.169 3.63351 17.7678 3.23223L17.0607 3.93934C17.2452 4.12385 17.3655 4.3829 17.4312 4.87208C17.4989 5.37565 17.5 6.04306 17.5 7H18.5ZM17.0607 3.93934C17.0607 3.93934 17.0607 3.93934 17.0607 3.93934C17.0607 3.93934 17.0607 3.93934 17.0607 3.93934C17.0607 3.93934 17.0607 3.93934 17.0607 3.93934C17.0607 3.93935 17.0606 3.93933 17.0607 3.93934C17.0607 3.93937 17.0607 3.93935 17.0606 3.93931C17.0606 3.93932 17.0606 3.93932 17.0606 3.93931C17.0606 3.93931 17.0611 3.93979 17.0616 3.94027C17.7685 3.93862 17.7675 3.23198 17.7678 3.23223C17.7677 3.23213 17.7678 3.23228 17.7677 3.23221C17.7677 3.23218 17.7677 3.2322 17.7678 3.23226C17.7678 3.23227 17.7678 3.23223 17.7677 3.23218C17.7678 3.23223 17.7678 3.23224 17.7678 3.23223C17.7678 3.23223 17.7678 3.23223 17.7678 3.23223C17.7678 3.23224 17.7678 3.23223 17.7678 3.23223C17.7678 3.23223 17.7678 3.23224 17.7678 3.23223C17.7678 3.23223 17.7678 3.23223 17.7678 3.23223C17.7678 3.23223 17.7678 3.23223 17.7678 3.23223C17.7678 3.23223 17.7678 3.23223 17.7678 3.23223C17.7678 3.23224 17.7678 3.23223 17.7678 3.23223C17.7678 3.23223 17.7678 3.23227 17.7678 3.23226C17.7677 3.2322 17.7677 3.23218 17.7677 3.23221C17.7678 3.23228 17.7677 3.23212 17.7674 3.2319C17.7675 3.23198 17.7685 3.93862 17.0616 3.94027C17.0611 3.93979 17.0606 3.93931 17.0606 3.93931C17.0606 3.93932 17.0606 3.93932 17.0606 3.9393C17.0607 3.93934 17.0607 3.93936 17.0607 3.93934C17.0606 3.93933 17.0607 3.93935 17.0607 3.9394C17.0607 3.93934 17.0607 3.93933 17.0607 3.93934C17.0607 3.93934 17.0607 3.93934 17.0607 3.93934C17.0607 3.93934 17.0607 3.93934 17.0607 3.93934L17.7678 3.23223C17.7678 3.23223 17.7678 3.23223 17.7678 3.23223C17.7678 3.23223 17.7678 3.23223 17.7678 3.23223C17.7678 3.23223 17.7678 3.23223 17.7678 3.23223C17.7678 3.23224 17.7678 3.23223 17.7678 3.23223C17.7678 3.23222 17.7678 3.23225 17.7678 3.23223C17.7677 3.23221 17.7678 3.23223 17.7678 3.23227C17.7678 3.23226 17.7678 3.23225 17.7678 3.23226C17.7678 3.23226 17.7673 3.23178 17.7668 3.2313C17.0599 3.23295 17.0609 3.93959 17.0607 3.93934C17.0608 3.93945 17.0606 3.93929 17.0607 3.93936C17.0607 3.9394 17.0607 3.93937 17.0606 3.93931C17.0606 3.93931 17.0607 3.93935 17.0607 3.93939C17.0607 3.93934 17.0607 3.93934 17.0607 3.93934C17.0607 3.93934 17.0607 3.93934 17.0607 3.93934C17.0607 3.93934 17.0607 3.93934 17.0607 3.93934C17.0607 3.93934 17.0607 3.93934 17.0607 3.93934C17.0607 3.93934 17.0607 3.93934 17.0607 3.93934C17.0607 3.93933 17.0607 3.93934 17.0607 3.93934C17.0607 3.93934 17.0607 3.93934 17.0607 3.93934C17.0607 3.93934 17.0607 3.93934 17.0607 3.93934C17.0607 3.93934 17.0607 3.93934 17.0607 3.93934C17.0607 3.93935 17.0606 3.93931 17.0606 3.93931C17.0607 3.93937 17.0607 3.93939 17.0607 3.93936C17.0606 3.93929 17.0608 3.93944 17.061 3.93965C17.0609 3.93959 17.0599 3.23295 17.7668 3.2313C17.7673 3.23178 17.7678 3.23226 17.7678 3.23226C17.7678 3.23225 17.7678 3.23226 17.7678 3.23227C17.7678 3.23222 17.7677 3.23221 17.7678 3.23223C17.7678 3.23225 17.7678 3.23222 17.7677 3.23217C17.7678 3.23223 17.7678 3.23224 17.7678 3.23223C17.7678 3.23223 17.7678 3.23223 17.7678 3.23223C17.7678 3.23223 17.7678 3.23223 17.7678 3.23223C17.7678 3.23223 17.7678 3.23223 17.7678 3.23223C17.7678 3.23223 17.7678 3.23223 17.7678 3.23223L17.0607 3.93934ZM6.5 7C6.5 6.04306 6.50106 5.37565 6.56876 4.87208C6.63453 4.3829 6.75483 4.12385 6.93934 3.93934L6.23223 3.23223C5.83096 3.63351 5.65836 4.13876 5.57768 4.73883C5.49894 5.32452 5.5 6.07133 5.5 7H6.5ZM10 2.5C9.07133 2.5 8.32452 2.49894 7.73883 2.57768C7.13876 2.65836 6.63351 2.83096 6.23223 3.23223L6.93934 3.93934C7.12385 3.75483 7.3829 3.63453 7.87208 3.56877C8.37565 3.50106 9.04306 3.5 10 3.5V2.5ZM6.93934 3.93934L6.93934 3.93934C6.93934 3.93934 6.93934 3.93934 6.93934 3.93934C6.93934 3.93934 6.93934 3.93934 6.93934 3.93934C6.93934 3.93934 6.93934 3.93934 6.93934 3.93934C6.93933 3.93935 6.93935 3.93933 6.93936 3.93932C6.58579 3.58579 6.23223 3.23223 6.23223 3.23223C6.23223 3.23223 6.23224 3.23222 6.23223 3.23223C6.23224 3.23223 6.23224 3.23223 6.23223 3.23223C6.23223 3.23223 6.23223 3.23223 6.23223 3.23223C6.23223 3.23223 6.23223 3.23223 6.23223 3.23223C6.23223 3.23223 6.23223 3.23223 6.23223 3.23223C6.23223 3.23223 6.23223 3.23223 6.23223 3.23223C6.23223 3.23223 6.23223 3.23223 6.23223 3.23223C6.23223 3.23223 6.23223 3.23223 6.23223 3.23223C6.23223 3.23223 6.23223 3.23223 6.23223 3.23223C6.23223 3.23223 6.23223 3.23223 6.23223 3.23223C6.23223 3.23223 6.23223 3.23223 6.23223 3.23223C6.23223 3.23223 6.23223 3.23223 6.23223 3.23223C6.23223 3.23223 6.23223 3.23223 6.23223 3.23223C6.23223 3.23223 6.23223 3.23223 6.23223 3.23223C6.23223 3.23223 6.23223 3.23223 6.23223 3.23223C6.23223 3.23223 6.23223 3.23223 6.23223 3.23223C6.23223 3.23223 6.23223 3.23223 6.23223 3.23223C6.23223 3.23223 6.23223 3.23223 6.23223 3.23223C6.23223 3.23223 6.23223 3.23223 6.23223 3.23223C6.23223 3.23223 6.23223 3.23223 6.23223 3.23223C6.23223 3.23223 6.23223 3.23223 6.23223 3.23223C6.23223 3.23224 6.23223 3.23224 6.23223 3.23223C6.23223 3.23223 6.23222 3.23224 6.23221 3.23225C6.23223 3.23223 6.58579 3.58579 6.93934 3.93934C6.93933 3.93935 6.93935 3.93933 6.93934 3.93934C6.93934 3.93934 6.93934 3.93934 6.93934 3.93934C6.93934 3.93934 6.93934 3.93934 6.93934 3.93934C6.93934 3.93934 6.93934 3.93934 6.93934 3.93934C6.93934 3.93934 6.93934 3.93934 6.93934 3.93934L6.23223 3.23223C6.23223 3.23223 6.23223 3.23223 6.23223 3.23223C6.23223 3.23223 6.23223 3.23223 6.23223 3.23223C6.23223 3.23223 6.23223 3.23223 6.23223 3.23223C6.23223 3.23223 6.23223 3.23223 6.23223 3.23223C6.23222 3.23225 6.23224 3.23223 6.23225 3.23221C6.58579 3.58579 6.93934 3.93934 6.93934 3.93934C6.93934 3.93934 6.93935 3.93933 6.93934 3.93934C6.93934 3.93934 6.93934 3.93934 6.93934 3.93934C6.93934 3.93934 6.93934 3.93934 6.93934 3.93934C6.93934 3.93934 6.93934 3.93934 6.93934 3.93934C6.93934 3.93934 6.93934 3.93934 6.93934 3.93934C6.93934 3.93934 6.93934 3.93934 6.93934 3.93934C6.93934 3.93934 6.93934 3.93934 6.93934 3.93934C6.93934 3.93934 6.93934 3.93934 6.93934 3.93934C6.93934 3.93934 6.93934 3.93934 6.93934 3.93934C6.93934 3.93934 6.93933 3.93935 6.93932 3.93936C6.93934 3.93934 6.58579 3.58579 6.23223 3.23223C6.23223 3.23224 6.23225 3.23222 6.23223 3.23223C6.23223 3.23223 6.23223 3.23223 6.23223 3.23223C6.23223 3.23223 6.23223 3.23223 6.23223 3.23223C6.23223 3.23223 6.23223 3.23223 6.23223 3.23223C6.23223 3.23223 6.23223 3.23223 6.23223 3.23223L6.93934 3.93934ZM5.5 7C5.5 7.92867 5.49894 8.67548 5.57768 9.26117C5.65836 9.86124 5.83096 10.3665 6.23223 10.7678L6.93934 10.0607C6.75483 9.87615 6.63453 9.6171 6.56876 9.12792C6.50106 8.62435 6.5 7.95694 6.5 7H5.5ZM10 10.5C9.04306 10.5 8.37565 10.4989 7.87208 10.4312C7.3829 10.3655 7.12385 10.2452 6.93934 10.0607L6.23223 10.7678C6.63351 11.169 7.13876 11.3416 7.73883 11.4223C8.32452 11.5011 9.07133 11.5 10 11.5V10.5ZM6.23223 10.7678C6.23223 10.7678 6.23223 10.7678 6.23223 10.7678C6.23223 10.7678 6.23223 10.7678 6.23223 10.7678C6.23223 10.7678 6.23223 10.7678 6.23223 10.7678C6.23229 10.7678 6.23221 10.7677 6.23215 10.7677C6.93952 10.7676 6.93937 10.0607 6.93934 10.0607C6.93932 10.0606 6.93934 10.0607 6.93936 10.0607C6.93933 10.0607 6.93931 10.0606 6.93931 10.0606C6.93935 10.0607 6.93933 10.0607 6.93932 10.0606C6.93934 10.0607 6.93934 10.0607 6.93934 10.0607C6.93934 10.0607 6.93934 10.0607 6.93934 10.0607C6.93934 10.0607 6.93934 10.0607 6.93934 10.0607C6.93934 10.0607 6.93934 10.0607 6.93934 10.0607C6.93934 10.0607 6.93934 10.0607 6.93934 10.0607C6.93934 10.0607 6.93934 10.0607 6.93934 10.0607C6.93934 10.0607 6.93934 10.0607 6.93934 10.0607C6.93934 10.0607 6.93934 10.0607 6.93934 10.0607C6.93934 10.0607 6.93934 10.0607 6.93934 10.0607C6.93934 10.0607 6.93935 10.0607 6.93934 10.0607C6.93933 10.0607 6.93934 10.0607 6.93934 10.0607C6.93935 10.0607 6.93934 10.0607 6.93934 10.0607C6.93933 10.0607 6.93935 10.0607 6.93935 10.0607C6.93934 10.0607 6.93933 10.0607 6.93932 10.0606C6.93934 10.0607 6.93933 10.0607 6.93934 10.0607C6.93937 10.0607 6.93952 10.7676 6.23266 10.7682C6.23221 10.7677 6.23228 10.7678 6.23224 10.7678C6.23223 10.7678 6.23223 10.7678 6.23223 10.7678C6.23223 10.7678 6.23223 10.7678 6.23223 10.7678C6.23223 10.7678 6.23223 10.7678 6.23223 10.7678L6.93934 10.0607H6.93934C6.93934 10.0607 6.93934 10.0607 6.93934 10.0607C6.93934 10.0607 6.93934 10.0607 6.93934 10.0607C6.93929 10.0606 6.93936 10.0607 6.9394 10.0607C6.23205 10.0608 6.23221 10.7677 6.23223 10.7678C6.23224 10.7678 6.23223 10.7678 6.23221 10.7677C6.23224 10.7678 6.23223 10.7678 6.23224 10.7678C6.23223 10.7678 6.23224 10.7678 6.23223 10.7678C6.23223 10.7678 6.23223 10.7678 6.23223 10.7678C6.23223 10.7678 6.23223 10.7678 6.23224 10.7678C6.23223 10.7678 6.23223 10.7678 6.23223 10.7678C6.23223 10.7678 6.23224 10.7678 6.23223 10.7678C6.23223 10.7678 6.23223 10.7678 6.23223 10.7678C6.23223 10.7678 6.23223 10.7678 6.23223 10.7678C6.23223 10.7678 6.23223 10.7678 6.23223 10.7678C6.23223 10.7678 6.23223 10.7678 6.23223 10.7678C6.23223 10.7678 6.23223 10.7678 6.23223 10.7678C6.23223 10.7678 6.23223 10.7678 6.23223 10.7678C6.23223 10.7678 6.23223 10.7678 6.23223 10.7678C6.23223 10.7678 6.23224 10.7678 6.23223 10.7678C6.23223 10.7678 6.23223 10.7678 6.23223 10.7678C6.23223 10.7678 6.23223 10.7678 6.23223 10.7678C6.23223 10.7678 6.23223 10.7678 6.23223 10.7678C6.23223 10.7678 6.23223 10.7678 6.23223 10.7678C6.23223 10.7678 6.23223 10.7678 6.23223 10.7678C6.23223 10.7678 6.23223 10.7678 6.23223 10.7678C6.23223 10.7678 6.23223 10.7678 6.23223 10.7678C6.23223 10.7678 6.23223 10.7678 6.23223 10.7678C6.23223 10.7678 6.23224 10.7678 6.23224 10.7678C6.23222 10.7678 6.23224 10.7678 6.23224 10.7678C6.23224 10.7678 6.23222 10.7678 6.23221 10.7677C6.23226 10.7678 6.23224 10.7678 6.23221 10.7677C6.23223 10.7678 6.23225 10.7678 6.23225 10.7678C6.23221 10.7677 6.23205 10.0608 6.93892 10.0602C6.93937 10.0607 6.93928 10.0606 6.93934 10.0607C6.93934 10.0607 6.93934 10.0607 6.93934 10.0607C6.93934 10.0607 6.93934 10.0607 6.93934 10.0607C6.93934 10.0607 6.93934 10.0607 6.93934 10.0607L6.23223 10.7678Z" fill="#434343"/>
<path d="M13 7C13 7.55228 12.5523 8 12 8C11.4477 8 11 7.55228 11 7C11 6.44772 11.4477 6 12 6C12.5523 6 13 6.44772 13 7Z" stroke="#434343" stroke-linecap="round" stroke-linejoin="round"/>
<path d="M18 6C16.3431 6 15 4.65685 15 3" stroke="#434343" stroke-linecap="round" stroke-linejoin="round"/>
<path d="M18 8C16.3431 8 15 9.34315 15 11" stroke="#434343" stroke-linecap="round" stroke-linejoin="round"/>
<path d="M6 6C7.65685 6 9 4.65685 9 3" stroke="#434343" stroke-linecap="round" stroke-linejoin="round"/>
<path d="M6 8C7.65685 8 9 9.34315 9 11" stroke="#434343" stroke-linecap="round" stroke-linejoin="round"/>
<path d="M5 19.8884C4.72386 19.8884 4.5 20.1122 4.5 20.3884C4.5 20.6645 4.72386 20.8884 5 20.8884V19.8884ZM19.2046 14.9433L18.9032 14.5443V14.5443L19.2046 14.9433ZM17.3974 16.3084L17.096 15.9095L17.096 15.9095L17.3974 16.3084ZM14.7791 14.7759L14.5229 15.2053V15.2053L14.7791 14.7759ZM15.2285 15.1431L14.8551 15.4756V15.4756L15.2285 15.1431ZM15.0206 17.4699L14.9418 16.9762L15.0206 17.4699ZM14.5668 17.5292L14.5157 17.0318H14.5157L14.5668 17.5292ZM12.7988 17.0348C12.5239 17.0089 12.2799 17.2107 12.254 17.4856C12.228 17.7605 12.4298 18.0045 12.7048 18.0304L12.7988 17.0348ZM18.0975 20.0865L18.3148 20.5368L18.0975 20.0865ZM20.2199 18.7459L20.5597 19.1127L20.2199 18.7459ZM21.8109 16.6707L21.3867 16.4061L21.3867 16.4061L21.8109 16.6707ZM15.1028 17.2775L15.4315 17.6542V17.6542L15.1028 17.2775ZM4.71076 15.8351C4.48551 15.9948 4.43241 16.3069 4.59215 16.5322C4.75189 16.7574 5.06399 16.8105 5.28924 16.6508L4.71076 15.8351ZM21.4245 14.943L21.7258 14.544L21.7258 14.544L21.4245 14.943ZM15.6069 20.8138L15.5271 20.3202L15.6069 20.8138ZM10.2763 20.6964L10.3772 20.2067H10.3772L10.2763 20.6964ZM5 20.8884H7.25993V19.8884H5V20.8884ZM18.9032 14.5443L17.096 15.9095L17.6988 16.7074L19.506 15.3422L18.9032 14.5443ZM14.5229 15.2053C14.6524 15.2825 14.7631 15.3722 14.8551 15.4756L15.602 14.8107C15.4351 14.6231 15.2427 14.4702 15.0352 14.3465L14.5229 15.2053ZM14.9418 16.9762C14.8392 16.9925 14.7315 17.0075 14.6188 17.0205L14.7339 18.0139C14.8609 17.9992 14.9828 17.9823 15.0993 17.9637L14.9418 16.9762ZM14.6188 17.0205C14.5849 17.0244 14.5505 17.0282 14.5157 17.0318L14.6179 18.0265C14.657 18.0225 14.6957 18.0183 14.7339 18.0139L14.6188 17.0205ZM14.5157 17.0318C14.0229 17.0824 13.4435 17.0957 12.7988 17.0348L12.7048 18.0304C13.4188 18.0978 14.064 18.0834 14.6179 18.0265L14.5157 17.0318ZM18.3148 20.5368C19.0199 20.1965 19.9294 19.6965 20.5597 19.1127L19.8802 18.3791C19.3645 18.8567 18.5679 19.3043 17.8801 19.6362L18.3148 20.5368ZM20.5597 19.1127C21.185 18.5336 21.8106 17.6159 22.2351 16.9354L21.3867 16.4061C20.9654 17.0815 20.3992 17.8983 19.8802 18.3791L20.5597 19.1127ZM14.774 16.9008C14.668 16.9933 14.5992 17.0224 14.5716 17.0283L14.7811 18.0061C15.0451 17.9495 15.2659 17.7988 15.4315 17.6542L14.774 16.9008ZM14.5716 17.0283C14.5667 17.0294 14.5653 17.0292 14.5668 17.0292V18.0292C14.6413 18.0292 14.7131 18.0207 14.7811 18.0061L14.5716 17.0283ZM14.8551 15.4756C15.2339 15.9011 15.2014 16.5278 14.774 16.9008L15.4315 17.6542C16.2906 16.9044 16.3393 15.6389 15.602 14.8107L14.8551 15.4756ZM15.0352 14.3465C13.4915 13.4258 11.5642 13.3385 9.73146 13.6936C7.89245 14.0499 6.08124 14.8632 4.71076 15.8351L5.28924 16.6508C6.54817 15.758 8.22783 15.0035 9.92166 14.6753C11.6218 14.346 13.2693 14.4576 14.5229 15.2053L15.0352 14.3465ZM17.096 15.9095C16.4097 16.428 15.7266 16.851 14.9418 16.9762L15.0993 17.9637C16.1374 17.7981 16.9844 17.2471 17.6988 16.7074L17.096 15.9095ZM21.7258 14.544C20.9103 13.9282 19.7187 13.9283 18.9032 14.5443L19.506 15.3422C19.9648 14.9956 20.6643 14.9956 21.1232 15.3421L21.7258 14.544ZM21.1232 15.3421C21.522 15.6432 21.5922 16.0767 21.3867 16.4061L22.2351 16.9354C22.755 16.1021 22.4743 15.1092 21.7258 14.544L21.1232 15.3421ZM15.6868 21.3073C16.579 21.1629 17.4834 20.9381 18.3148 20.5368L17.8801 19.6362C17.1687 19.9796 16.3686 20.1839 15.5271 20.3202L15.6868 21.3073ZM10.1754 21.1861C11.9745 21.5567 13.868 21.6017 15.6868 21.3073L15.5271 20.3202C13.8297 20.5949 12.0587 20.5531 10.3772 20.2067L10.1754 21.1861ZM7.25993 20.8884C8.23663 20.8884 9.22457 20.9902 10.1754 21.1861L10.3772 20.2067C9.3605 19.9972 8.30496 19.8884 7.25993 19.8884V20.8884Z" fill="#434343"/>
<rect x="2" y="14" width="3" height="8" stroke="#434343" stroke-linecap="round" stroke-linejoin="round"/>
</svg>
