<svg width="18" height="18" viewBox="0 0 18 18" fill="none" xmlns="http://www.w3.org/2000/svg">
<path d="M1.5 9C1.5 5.46447 1.5 3.6967 2.59835 2.59835C3.6967 1.5 5.46447 1.5 9 1.5C12.5355 1.5 14.3033 1.5 15.4017 2.59835C16.5 3.6967 16.5 5.46447 16.5 9C16.5 12.5355 16.5 14.3033 15.4017 15.4017C14.3033 16.5 12.5355 16.5 9 16.5C5.46447 16.5 3.6967 16.5 2.59835 15.4017C1.5 14.3033 1.5 12.5355 1.5 9Z" stroke="#434343"/>
<path d="M9.71502 7.86741L9.96962 8.29773L9.71502 7.86741ZM7.09375 6.65625C7.09375 6.93239 7.31761 7.15625 7.59375 7.15625C7.86989 7.15625 8.09375 6.93239 8.09375 6.65625H7.09375ZM8.5 9.75C8.5 10.0261 8.72386 10.25 9 10.25C9.27614 10.25 9.5 10.0261 9.5 9.75H8.5ZM9.90625 6.65625C9.90625 6.98791 9.72838 7.27855 9.46043 7.43708L9.96962 8.29773C10.5292 7.96667 10.9062 7.35576 10.9062 6.65625H9.90625ZM8.09375 6.65625C8.09375 6.15574 8.49949 5.75 9 5.75V4.75C7.94721 4.75 7.09375 5.60346 7.09375 6.65625H8.09375ZM9 5.75C9.50051 5.75 9.90625 6.15574 9.90625 6.65625H10.9062C10.9062 5.60346 10.0528 4.75 9 4.75V5.75ZM8.5 8.8125V9.75H9.5V8.8125H8.5ZM9.46043 7.43708C9.2549 7.55868 9.02553 7.72463 8.8426 7.9402C8.65761 8.15819 8.5 8.45223 8.5 8.8125H9.5C9.5 8.75856 9.52166 8.68551 9.60506 8.58724C9.69051 8.48654 9.81865 8.38705 9.96962 8.29773L9.46043 7.43708Z" fill="#434343"/>
<circle cx="9" cy="12" r="0.75" fill="#393A44"/>
</svg>
